<mxfile host="app.diagrams.net" modified="2023-10-14T13:26:30.161Z" agent="Mozilla/5.0 (Macintosh; Intel Mac OS X 10_15_7) AppleWebKit/537.36 (KHTML, like Gecko) Chrome/117.0.0.0 Safari/537.36 Edg/117.0.2045.40" version="21.6.9" etag="jjUIAcwXy_34cJv81p9t" type="github">
  <diagram name="第 1 页" id="9sed03UmzHWvpSLtB23d">
    <mxGraphModel>
      <root>
        <mxCell id="0" />
        <mxCell id="1" parent="0" />
      </root>
    </mxGraphModel>
  </diagram>
</mxfile>
